<svg id="Layer_1" data-name="Layer 1" xmlns="http://www.w3.org/2000/svg" viewBox="0 0 538.28 111.73"><defs><style>.cls-1{fill:#231f20;}.cls-2{fill:#ec1c24;}</style></defs><path d="M450.9,112.78v41.06H212.63V112.78H450.9m2.46-2.46H210.18v46H453.36v-46Z" transform="translate(-31.01 -44.57)"/><path class="cls-1" d="M244.19,133.54c-2.34-1.84-5.68-2.49-8.4-3.28a12.18,12.18,0,0,1-3.36-1.36,2.92,2.92,0,0,1-.91-.91,2.3,2.3,0,0,1-.32-1.18,3.25,3.25,0,0,1,1.33-2.64,6,6,0,0,1,3.6-1.06,9.61,9.61,0,0,1,7.26,3l.39.43,2.61-3.2-.3-.31a12.87,12.87,0,0,0-9.73-3.83,10.8,10.8,0,0,0-6.77,2.13,7.09,7.09,0,0,0-2.77,5.68,6.79,6.79,0,0,0,.72,3.18,7.62,7.62,0,0,0,3.84,3.27c2.39,1.07,5.24,1.56,7.44,2.34a7.67,7.67,0,0,1,2.65,1.42,2.91,2.91,0,0,1,1,2.24,3.58,3.58,0,0,1-1.18,2.66,6.47,6.47,0,0,1-4.53,1.39,10.65,10.65,0,0,1-7.93-3.59l-.4-.44-2.55,3.28.27.31a13.55,13.55,0,0,0,10.49,4.35c3.65,0,6.22-1,7.87-2.57a7.65,7.65,0,0,0,2.35-5.67A6.78,6.78,0,0,0,244.19,133.54Z" transform="translate(-31.01 -44.57)"/><polygon class="cls-1" points="225.58 78.94 233.92 78.94 233.92 102.38 234.42 102.38 238.19 102.38 238.19 78.94 246.57 78.94 246.57 75.03 225.58 75.03 225.58 78.94"/><path class="cls-1" d="M294.23,119.59l-11,27.36h4.82l2.33-5.85h12.46l2.33,5.85H310l-11-27.36Zm7.24,17.59h-9.74l4.89-12.35Z" transform="translate(-31.01 -44.57)"/><path class="cls-1" d="M337.76,133.87A8.11,8.11,0,0,0,340,128a8.23,8.23,0,0,0-2.48-6.15,9,9,0,0,0-6.28-2.29H320.13V147h4.26V136.47h4.5L335.61,147h5.06l-7.19-10.87A7.88,7.88,0,0,0,337.76,133.87Zm-13.37-10.36h6.43a4.9,4.9,0,0,1,3.46,1.26,4.76,4.76,0,0,1,0,6.55,4.82,4.82,0,0,1-3.45,1.28h-6.43Z" transform="translate(-31.01 -44.57)"/><polygon class="cls-1" points="318.85 78.94 327.19 78.94 327.19 102.38 327.69 102.38 331.46 102.38 331.46 78.94 339.84 78.94 339.84 75.03 318.85 75.03 318.85 78.94"/><path class="cls-1" d="M400.34,136.14a7.7,7.7,0,0,1-1.78,5.4,7.83,7.83,0,0,1-10.39,0,7.75,7.75,0,0,1-1.78-5.4V119.59h-4.27v16.63a11.44,11.44,0,0,0,2.83,8.13c1.9,2,4.75,3.08,8.42,3.07s6.51-1.08,8.41-3.06a11.43,11.43,0,0,0,2.83-8.18V119.59h-4.27Z" transform="translate(-31.01 -44.57)"/><path class="cls-1" d="M435.27,122.1a8.79,8.79,0,0,0-6.48-2.51H417.7V147H422V136.47h6.82a8.7,8.7,0,0,0,6.44-2.5,8.81,8.81,0,0,0,0-11.87ZM422,123.51h6.43a4.9,4.9,0,0,1,3.46,1.26,4.75,4.75,0,0,1,0,6.53,4.9,4.9,0,0,1-3.46,1.26H422Z" transform="translate(-31.01 -44.57)"/><path d="M520.83,123.09a8.66,8.66,0,0,0-6.69,2.88,12,12,0,0,0,0,14.67,9.18,9.18,0,0,0,13.37,0,12,12,0,0,0,0-14.67A8.66,8.66,0,0,0,520.83,123.09Z" transform="translate(-31.01 -44.57)"/><path d="M453.36,110.32v46H569.29v-46ZM497.11,142a12.42,12.42,0,0,1-10.44,5.42,14.13,14.13,0,1,1,0-28.26,12.31,12.31,0,0,1,10.41,5.42l.31.45-3.64,2-.25-.37a8.44,8.44,0,0,0-6.83-3.62,9.39,9.39,0,0,0-6.89,2.85,11.18,11.18,0,0,0,0,14.73,9.4,9.4,0,0,0,6.89,2.86,8.29,8.29,0,0,0,6.82-3.62l.25-.37,3.7,2Zm33.54,1.37a14,14,0,0,1-19.66,0,15.45,15.45,0,0,1,0-20.16,14,14,0,0,1,19.66,0,15.39,15.39,0,0,1,0,20.16Zm16.71,4A2.67,2.67,0,1,1,550,144.7,2.69,2.69,0,0,1,547.36,147.36Z" transform="translate(-31.01 -44.57)"/><polygon class="cls-2" points="69.25 75.42 80.71 68.55 89.48 63.28 82.73 51.13 69.25 75.42"/><path class="cls-2" d="M195.63,138.08l-4.11-2a8.91,8.91,0,0,1-4.58-10.74l6.76-21a1.49,1.49,0,0,0-1.74-1.91l-18.12,4.23a6.28,6.28,0,0,1-7.57-4.83l-1.17-5.57a1.48,1.48,0,0,0-2.57-.67l-18.1,20.61a3.09,3.09,0,0,1-5.36-2.61l8.5-44.13a1.49,1.49,0,0,0-2.2-1.58L136.14,73a4.53,4.53,0,0,1-6.06-1.71L115,45.31a1.49,1.49,0,0,0-2.58,0l-15,26A4.53,4.53,0,0,1,91.35,73L82.1,67.83a1.48,1.48,0,0,0-2.18,1.58l8.49,44.11a3.09,3.09,0,0,1-5.35,2.63L65,95.52a1.5,1.5,0,0,0-2.58.69l-1.15,5.57a6.3,6.3,0,0,1-7.58,4.83l-18.11-4.23a1.5,1.5,0,0,0-1.76,1.91l6.77,21A8.92,8.92,0,0,1,36,136.07l-4.13,2a1.48,1.48,0,0,0-.29,2.48l19,15.74H176.94l19-15.74A1.49,1.49,0,0,0,195.63,138.08Zm-87.75,7.79a2,2,0,1,1-3.94,0V133.33a2,2,0,0,1,3.94,0Zm7.83,4.46a2,2,0,0,1-3.94,0V128.87a2,2,0,0,1,3.94,0Zm7.84-4.46a2,2,0,1,1-3.94,0V133.33a2,2,0,0,1,3.94,0Zm9.17-18-19-11.39-19,11.39a1.49,1.49,0,0,1-.81.24,1.59,1.59,0,0,1-1.39-2.37l19.8-35.66a1.59,1.59,0,0,1,2.78,0l10.65,19.18,9.15,16.48A1.59,1.59,0,0,1,132.72,127.88Z" transform="translate(-31.01 -44.57)"/><path class="cls-2" d="M210.18,73.81c0-17.46,13.22-29.24,30.6-29.24,13.65,0,20.94,7.71,24.67,15.17L252.9,65.68a13.56,13.56,0,0,0-12.12-8.23c-9.24,0-15.77,7.12-15.77,16.36s6.53,16.37,15.77,16.37A13.56,13.56,0,0,0,252.9,82l12.55,5.94c-3.64,7.29-11,15.17-24.67,15.17C223.4,103.06,210.18,91.19,210.18,73.81Z" transform="translate(-31.01 -44.57)"/><path class="cls-2" d="M312.69,102.09,309.89,94h-22.3l-2.79,8.14H268.26l21.28-56.55h18.32l21.36,56.55ZM298.7,60l-7.21,21.28h14.42Z" transform="translate(-31.01 -44.57)"/><path class="cls-2" d="M370.52,102.09,346.61,69.36v32.73H332V45.54h15l22.89,31.11V45.54H384.6v56.55Z" transform="translate(-31.01 -44.57)"/><path class="cls-2" d="M431.83,102.09,429,94H406.74l-2.8,8.14H387.41l21.28-56.55H427l21.36,56.55ZM417.84,60l-7.2,21.28h14.41Z" transform="translate(-31.01 -44.57)"/><path class="cls-2" d="M451.18,102.09V45.54h23.73c17.81,0,30.61,10.68,30.61,28.23s-12.8,28.32-30.52,28.32ZM490.6,73.77c0-8.73-5.26-15.51-15.6-15.51h-9.24V89.37h9.15C484.83,89.37,490.6,82.17,490.6,73.77Z" transform="translate(-31.01 -44.57)"/><path class="cls-2" d="M552.76,102.09,550,94h-22.3l-2.8,8.14H508.33l21.28-56.55h18.31l21.37,56.55ZM538.77,60l-7.21,21.28H546Z" transform="translate(-31.01 -44.57)"/></svg>